<svg xmlns="http://www.w3.org/2000/svg" viewBox="0 0 61.385 38.16"><defs><style>.a{fill:#c1c6ce;}</style></defs><path class="a" d="M55.415,7.641H40.022V3.775H55.415V7.641ZM29.784,23.249a10.012,10.012,0,0,1,1.5,5.584,10.989,10.989,0,0,1-1.718,6.086,10,10,0,0,1-2.721,3.007,10.713,10.713,0,0,1-4.3,1.933,25.351,25.351,0,0,1-5.37.5H0V2.2H18.472q6.981.107,9.88,4.081a9.9,9.9,0,0,1,1.718,5.8,8.377,8.377,0,0,1-1.79,5.656,8.913,8.913,0,0,1-2.935,2.148A8.322,8.322,0,0,1,29.784,23.249ZM8.806,17.235H16.9a7.393,7.393,0,0,0,4.009-.931,3.674,3.674,0,0,0,1.575-3.365A3.419,3.419,0,0,0,20.4,9.431a13.289,13.289,0,0,0-4.511-.573H8.806v8.377Zm14.462,11.1a4.012,4.012,0,0,0-2.434-4.081,9.054,9.054,0,0,0-3.795-.644H8.806V33.774H16.9a9.423,9.423,0,0,0,3.866-.644C22.41,32.27,23.269,30.7,23.269,28.333ZM61.143,22.1a29.17,29.17,0,0,1,.215,5.441h-19.9c.143,2.721,1.074,4.654,2.864,5.8a7.018,7.018,0,0,0,3.938,1,5.8,5.8,0,0,0,3.938-1.289A5.718,5.718,0,0,0,53.7,31.2H61a8.9,8.9,0,0,1-2.649,4.94c-2.434,2.649-5.871,4.009-10.31,4.009a15.124,15.124,0,0,1-9.665-3.365c-2.792-2.219-4.153-5.871-4.153-10.954,0-4.725,1.217-8.377,3.795-10.883a13.329,13.329,0,0,1,9.809-3.795,15.693,15.693,0,0,1,6.444,1.289A10.822,10.822,0,0,1,59,16.519,13.8,13.8,0,0,1,61.143,22.1Zm-7.16.716a5.8,5.8,0,0,0-1.933-4.3,6.23,6.23,0,0,0-4.224-1.5,5.571,5.571,0,0,0-4.3,1.575A7.5,7.5,0,0,0,41.6,22.82Z" transform="translate(0 -2.2)"/></svg>