<svg xmlns="http://www.w3.org/2000/svg" viewBox="0 0 38.375 38.376"><defs><style>.a{fill:#c1c6ce;}</style></defs><g transform="translate(0 0)"><path class="a" d="M156.694,2.1H139.081A10.389,10.389,0,0,0,128.7,12.481V30.094a10.389,10.389,0,0,0,10.381,10.381h17.613a10.389,10.389,0,0,0,10.381-10.381V12.41A10.374,10.374,0,0,0,156.694,2.1Zm7.231,27.994a7.334,7.334,0,0,1-7.3,7.3H139.01a7.334,7.334,0,0,1-7.3-7.3V12.41a7.334,7.334,0,0,1,7.3-7.3h17.613a7.334,7.334,0,0,1,7.3,7.3Z" transform="translate(-128.7 -2.1)"/><g transform="translate(10.635 10.489)"><path class="a" d="M160.627,24.089a8.581,8.581,0,0,0-2.434-4.8,8.817,8.817,0,0,0-4.8-2.434,7.359,7.359,0,0,0-2.506,0,8.78,8.78,0,0,0-5.656,3.365,8.516,8.516,0,0,0-1.575,6.372,8.78,8.78,0,0,0,3.365,5.656,8.374,8.374,0,0,0,5.083,1.718A7.782,7.782,0,0,0,153.4,33.9a8.78,8.78,0,0,0,5.656-3.365A8.613,8.613,0,0,0,160.627,24.089Zm-7.661,6.73a5.505,5.505,0,0,1-4.081-1,5.247,5.247,0,0,1-2.148-3.651,5.505,5.505,0,0,1,1-4.081,5.247,5.247,0,0,1,3.651-2.148,3.211,3.211,0,0,1,.788-.072,2.685,2.685,0,0,1,.788.072,5.468,5.468,0,0,1,4.654,4.654A5.536,5.536,0,0,1,152.966,30.819Z" transform="translate(-143.554 -16.75)"/></g><g transform="translate(27.35 7.947)"><path class="a" d="M169.477,13.63a1.579,1.579,0,0,0-1.074-.43,1.457,1.457,0,0,0-1.074.43,1.579,1.579,0,0,0-.43,1.074,1.457,1.457,0,0,0,.43,1.074,1.579,1.579,0,0,0,1.074.43,1.457,1.457,0,0,0,1.074-.43,1.579,1.579,0,0,0,.43-1.074A1.229,1.229,0,0,0,169.477,13.63Z" transform="translate(-166.9 -13.2)"/></g></g></svg>