<svg xmlns="http://www.w3.org/2000/svg" viewBox="0 0 38.805 38.805"><defs><style>.a{fill:#c1c6ce;}</style></defs><g transform="translate(0 0)"><path class="a" d="M357.328,11.165A19.3,19.3,0,0,0,340.5,1.5a19.046,19.046,0,0,0-9.737,2.577A19.3,19.3,0,0,0,321.1,20.9a19.4,19.4,0,1,0,38.805,0A19.235,19.235,0,0,0,357.328,11.165ZM340.5,4.364a15.978,15.978,0,0,1,10.954,4.153l-.286.43c-.143.143-.43.5-.931,1a15.735,15.735,0,0,1-1.647,1.432,24.465,24.465,0,0,1-2.434,1.575,23.059,23.059,0,0,1-3.293,1.5,70.177,70.177,0,0,0-6.229-9.665A17.774,17.774,0,0,1,340.5,4.364Zm-13.031,6.229a17.4,17.4,0,0,1,5.942-4.725,82.556,82.556,0,0,1,6.157,9.594,59.658,59.658,0,0,1-15.322,2A17.827,17.827,0,0,1,327.472,10.593Zm-2.434,16.324a16.643,16.643,0,0,1-1.146-6.014v-.5a59.406,59.406,0,0,0,17.04-2.363c.573,1.074,1,2,1.36,2.792-.072,0-.143.072-.358.143a.778.778,0,0,1-.358.072l-.931.358a15.4,15.4,0,0,0-2.506,1.217c-1,.573-2.148,1.289-3.293,2.076a23.019,23.019,0,0,0-3.58,3.15,22.358,22.358,0,0,0-3.15,4.224A18.938,18.938,0,0,1,325.038,26.917Zm15.465,10.6a16.58,16.58,0,0,1-10.6-3.795l.358.286a12.46,12.46,0,0,1,2.577-3.723,19.15,19.15,0,0,1,3.293-2.864,39.73,39.73,0,0,1,3.437-2.076,17.45,17.45,0,0,1,2.577-1.217,8.334,8.334,0,0,0,1.074-.43h.143a64.269,64.269,0,0,1,3.508,12.6A17.389,17.389,0,0,1,340.5,37.513Zm13.961-7.661a16.513,16.513,0,0,1-4.654,4.8,79.695,79.695,0,0,0-3.222-11.885,24.166,24.166,0,0,1,10.31.716A16.4,16.4,0,0,1,354.464,29.852Zm2.363-9.164a3.632,3.632,0,0,1-.644-.143c-.286-.072-.573-.072-.931-.143a6.305,6.305,0,0,0-1.217-.143c-.43-.072-.931-.072-1.432-.143a12.136,12.136,0,0,0-1.647-.072c-.573,0-1.146-.072-1.718-.072a16.813,16.813,0,0,0-1.862.072,15.117,15.117,0,0,0-1.862.143,1.166,1.166,0,0,1-.215-.43,2.816,2.816,0,0,1-.143-.43c-.286-.716-.716-1.5-1.146-2.434a23.558,23.558,0,0,0,3.293-1.647A25.5,25.5,0,0,0,349.81,13.6c.644-.5,1.217-1,1.79-1.5a11.164,11.164,0,0,0,1.074-1.146c.143-.215.358-.43.5-.644h0a16.518,16.518,0,0,1,3.795,10.381Z" transform="translate(-321.1 -1.5)"/></g></svg>