<svg xmlns="http://www.w3.org/2000/svg" viewBox="0 0 48.757 39.808"><defs><style>.a{fill:#c1c6ce;}</style></defs><g transform="translate(0 0)"><path class="a" d="M259.457,4.754a19.287,19.287,0,0,1-5.8,1.575A10.27,10.27,0,0,0,258.1.816a19.619,19.619,0,0,1-6.372,2.434A10.028,10.028,0,0,0,234.4,10.123a11.85,11.85,0,0,0,.215,2.291,28.356,28.356,0,0,1-20.62-10.453,10.052,10.052,0,0,0,3.079,13.388,9.642,9.642,0,0,1-4.511-1.217v.143a9.99,9.99,0,0,0,8.019,9.809,10.3,10.3,0,0,1-2.649.358,15.118,15.118,0,0,1-1.862-.143,10.117,10.117,0,0,0,9.379,6.945,20.283,20.283,0,0,1-12.386,4.3c-.788,0-1.575-.072-2.363-.143a28.144,28.144,0,0,0,15.393,4.511c18.4,0,28.5-15.25,28.5-28.5a7.78,7.78,0,0,0-.072-1.289A25.043,25.043,0,0,0,259.457,4.754Z" transform="translate(-210.7 -0.1)"/></g></svg>